<svg xmlns="http://www.w3.org/2000/svg" id="uuid-b0897c9f-630b-4add-87ef-d380344fbd1a" viewBox="0 0 523.85 92"><defs><style>.uuid-5427850b-5bcc-4b76-8217-bff77b33054f{fill:#008ba5;}.uuid-5427850b-5bcc-4b76-8217-bff77b33054f,.uuid-a0d790a1-6bfc-48ce-a6b7-c2fe9ee7bca1,.uuid-42bd3906-81e3-4496-8e11-f86842d02c13,.uuid-b54134de-b618-4b83-87d8-3c14c23f887a,.uuid-ac96c6e4-9b6f-45f8-b50c-52fea5b69511,.uuid-dfcb52c2-292c-48d5-9be7-8379997a08e4,.uuid-3a5ac790-9986-4398-8c02-a82b25ade7ce,.uuid-115cd9bc-7f46-4501-810a-a5a06e896d2a,.uuid-71767cf0-5296-4581-a6c7-b85b22a0d7af{stroke-width:0px;}.uuid-a0d790a1-6bfc-48ce-a6b7-c2fe9ee7bca1{fill:#0f8140;}.uuid-a0d790a1-6bfc-48ce-a6b7-c2fe9ee7bca1,.uuid-42bd3906-81e3-4496-8e11-f86842d02c13,.uuid-b54134de-b618-4b83-87d8-3c14c23f887a,.uuid-dfcb52c2-292c-48d5-9be7-8379997a08e4,.uuid-3a5ac790-9986-4398-8c02-a82b25ade7ce,.uuid-115cd9bc-7f46-4501-810a-a5a06e896d2a,.uuid-71767cf0-5296-4581-a6c7-b85b22a0d7af{fill-rule:evenodd;}.uuid-42bd3906-81e3-4496-8e11-f86842d02c13{fill:#91908e;}.uuid-b54134de-b618-4b83-87d8-3c14c23f887a{fill:#010101;}.uuid-ac96c6e4-9b6f-45f8-b50c-52fea5b69511,.uuid-dfcb52c2-292c-48d5-9be7-8379997a08e4{fill:#fff;}.uuid-3a5ac790-9986-4398-8c02-a82b25ade7ce{fill:#f7f8f7;}.uuid-115cd9bc-7f46-4501-810a-a5a06e896d2a{fill:#fcb52b;}.uuid-71767cf0-5296-4581-a6c7-b85b22a0d7af{fill:#fdd800;}</style></defs><path class="uuid-ac96c6e4-9b6f-45f8-b50c-52fea5b69511" d="M178.33,46.04c-1.29,0-2.22-.28-2.78-.85-.56-.57-.85-1.5-.87-2.8-.04-3.17-.06-6.34-.06-9.52s.02-6.35.06-9.52h1.86c-.02,2.11-.04,4.25-.05,6.42-.01,2.17-.02,4.33,0,6.5,0,2.16.02,4.29.04,6.4,0,.62.15,1.07.45,1.35s.75.42,1.36.42,1.08-.14,1.37-.42c.29-.28.43-.73.43-1.35.02-2.11.03-4.24.04-6.4,0-2.16.01-4.33,0-6.5,0-2.17-.02-4.31-.05-6.42h1.87c.04,3.17.06,6.34.06,9.52s-.02,6.35-.06,9.52c-.02,1.3-.31,2.24-.87,2.8-.56.57-1.5.85-2.8.85Z"></path><path class="uuid-ac96c6e4-9b6f-45f8-b50c-52fea5b69511" d="M190.4,45.84v-22.49h3.18l1.25,7.13,1.91,13.68h.63l-.32-12.85-.13-7.96h1.83v22.49h-3.29l-1.41-8.07-1.6-12.74h-.67l.31,12.39.11,8.42h-1.8Z"></path><path class="uuid-ac96c6e4-9b6f-45f8-b50c-52fea5b69511" d="M207.35,45.84v-22.49h1.86v22.49h-1.86Z"></path><path class="uuid-ac96c6e4-9b6f-45f8-b50c-52fea5b69511" d="M219.4,45.84l-2.36-22.49h1.94l1.22,12.53.58,8.28h.76l.56-8.28,1.22-12.53h1.97l-2.39,22.49h-3.5Z"></path><path class="uuid-ac96c6e4-9b6f-45f8-b50c-52fea5b69511" d="M233.11,45.84v-22.49h6.34v1.69h-4.48v8.65h4.2v1.67h-4.2v8.8h4.48v1.69h-6.34Z"></path><path class="uuid-ac96c6e4-9b6f-45f8-b50c-52fea5b69511" d="M247.21,45.84v-22.49h3.42c1.27,0,2.2.28,2.77.84s.89,1.5.94,2.8c.03.83.05,1.62.06,2.37s0,1.47,0,2.17c0,.7-.03,1.39-.06,2.09-.03.91-.19,1.63-.48,2.17s-.74.92-1.35,1.15l2.26,8.91h-2l-2.07-8.59h-1.64v8.59h-1.86ZM249.07,35.57h1.55c.64,0,1.1-.15,1.38-.45.29-.3.44-.77.47-1.42.03-.74.05-1.49.06-2.26,0-.76,0-1.53,0-2.28,0-.76-.03-1.51-.06-2.25-.03-.65-.18-1.12-.46-1.42-.28-.3-.74-.45-1.38-.45h-1.56v10.53Z"></path><path class="uuid-ac96c6e4-9b6f-45f8-b50c-52fea5b69511" d="M265.99,46.04c-1.29,0-2.22-.29-2.79-.86-.57-.58-.88-1.53-.94-2.85,0-.58-.01-1.11-.01-1.59s0-.96.01-1.44.02-1.01.04-1.6h1.79c-.04.83-.06,1.66-.06,2.49s.02,1.63.06,2.42c.03.64.19,1.1.48,1.39s.76.44,1.41.44,1.06-.15,1.34-.44.43-.75.46-1.39c.03-.52.05-1,.06-1.41s0-.84,0-1.28c0-.44-.03-.95-.06-1.54-.02-.69-.11-1.28-.29-1.75-.17-.47-.53-.78-1.08-.92l-1.46-.38c-.72-.18-1.27-.45-1.66-.81-.38-.36-.65-.84-.79-1.43-.15-.59-.23-1.32-.26-2.18,0-.61-.01-1.27,0-2,0-.72.01-1.42.02-2.09.03-.87.16-1.58.41-2.12.24-.54.63-.93,1.17-1.18.54-.25,1.25-.37,2.14-.37,1.24,0,2.13.29,2.69.86s.85,1.52.9,2.84c.02.52.03,1.15.02,1.9,0,.75-.02,1.55-.05,2.4h-1.8c.03-.77.04-1.53.05-2.3,0-.76,0-1.53-.04-2.28-.02-.64-.17-1.1-.46-1.39-.29-.29-.73-.44-1.34-.44s-1.09.15-1.36.44c-.27.29-.43.75-.46,1.39-.04.71-.05,1.43-.05,2.16,0,.73.02,1.46.05,2.19.02.83.12,1.46.3,1.88.18.42.55.7,1.11.83l1.38.34c.74.17,1.31.44,1.69.82.39.38.66.86.81,1.46s.23,1.31.25,2.14c.02.58.03,1.07.03,1.47s0,.79,0,1.16c0,.38-.02.82-.04,1.32-.05,1.32-.35,2.27-.91,2.85-.56.58-1.48.86-2.74.86Z"></path><path class="uuid-ac96c6e4-9b6f-45f8-b50c-52fea5b69511" d="M277.86,45.84v-22.49h1.86v22.49h-1.86Z"></path><path class="uuid-ac96c6e4-9b6f-45f8-b50c-52fea5b69511" d="M289.84,45.84v-20.81h-2.87v-1.69h7.59v1.69h-2.85v20.81h-1.87Z"></path><path class="uuid-ac96c6e4-9b6f-45f8-b50c-52fea5b69511" d="M300.2,45.84l2.4-22.49h3.49l2.39,22.49h-1.9l-.59-6.52h-3.3l-.58,6.52h-1.91ZM302.87,37.63h2.94l-.44-4.92-.63-7.68h-.79l-.63,7.69-.45,4.91Z"></path><path class="uuid-ac96c6e4-9b6f-45f8-b50c-52fea5b69511" d="M319.57,46.04c-1.29,0-2.22-.29-2.79-.86-.57-.58-.88-1.53-.93-2.85,0-.58-.01-1.11-.01-1.59s0-.96.01-1.44c0-.48.02-1.01.04-1.6h1.79c-.04.83-.06,1.66-.06,2.49s.02,1.63.06,2.42c.03.64.19,1.1.48,1.39.29.29.76.44,1.41.44s1.06-.15,1.34-.44.43-.75.46-1.39c.03-.52.05-1,.06-1.41,0-.42,0-.84,0-1.28,0-.44-.03-.95-.06-1.54-.02-.69-.12-1.28-.29-1.75-.17-.47-.53-.78-1.08-.92l-1.46-.38c-.72-.18-1.27-.45-1.66-.81-.38-.36-.65-.84-.79-1.43-.15-.59-.23-1.32-.26-2.18,0-.61-.01-1.27,0-2,0-.72.01-1.42.02-2.09.03-.87.16-1.58.41-2.12.24-.54.63-.93,1.17-1.18.54-.25,1.25-.37,2.14-.37,1.24,0,2.13.29,2.69.86s.85,1.52.9,2.84c.02.52.03,1.15.02,1.9,0,.75-.02,1.55-.05,2.4h-1.8c.03-.77.04-1.53.05-2.3,0-.76,0-1.53-.04-2.28-.02-.64-.17-1.1-.46-1.39-.29-.29-.73-.44-1.34-.44s-1.09.15-1.36.44c-.27.29-.43.75-.46,1.39-.04.71-.05,1.43-.05,2.16,0,.73.02,1.46.05,2.19.02.83.12,1.46.29,1.88.18.42.55.7,1.11.83l1.38.34c.74.17,1.3.44,1.69.82s.66.86.81,1.46.23,1.31.25,2.14c.02.58.03,1.07.03,1.47s0,.79,0,1.16c0,.38-.02.82-.04,1.32-.05,1.32-.35,2.27-.91,2.85-.56.58-1.48.86-2.74.86Z"></path><path class="uuid-ac96c6e4-9b6f-45f8-b50c-52fea5b69511" d="M342.88,45.84v-22.49h1.86v22.49h-1.86Z"></path><path class="uuid-ac96c6e4-9b6f-45f8-b50c-52fea5b69511" d="M356.7,46.04c-1.29,0-2.22-.29-2.79-.86-.57-.58-.88-1.53-.93-2.85,0-.58-.01-1.11-.01-1.59s0-.96.01-1.44c0-.48.02-1.01.04-1.6h1.79c-.04.83-.06,1.66-.06,2.49s.02,1.63.06,2.42c.03.64.19,1.1.48,1.39.29.29.76.44,1.41.44s1.06-.15,1.34-.44.43-.75.46-1.39c.03-.52.05-1,.06-1.41,0-.42,0-.84,0-1.28,0-.44-.03-.95-.06-1.54-.02-.69-.12-1.28-.29-1.75-.17-.47-.53-.78-1.08-.92l-1.46-.38c-.72-.18-1.27-.45-1.66-.81-.38-.36-.65-.84-.79-1.43-.15-.59-.23-1.32-.26-2.18,0-.61-.01-1.27,0-2,0-.72.01-1.42.02-2.09.03-.87.16-1.58.41-2.12.24-.54.63-.93,1.17-1.18.54-.25,1.25-.37,2.14-.37,1.24,0,2.13.29,2.69.86s.85,1.52.9,2.84c.02.52.03,1.15.02,1.9,0,.75-.02,1.55-.05,2.4h-1.8c.03-.77.04-1.53.05-2.3,0-.76,0-1.53-.04-2.28-.02-.64-.17-1.1-.46-1.39-.29-.29-.73-.44-1.34-.44s-1.09.15-1.36.44c-.27.29-.43.75-.46,1.39-.04.71-.05,1.43-.05,2.16,0,.73.02,1.46.05,2.19.02.83.12,1.46.29,1.88.18.42.55.7,1.11.83l1.38.34c.74.17,1.3.44,1.69.82s.66.86.81,1.46.23,1.31.25,2.14c.02.58.03,1.07.03,1.47s0,.79,0,1.16c0,.38-.02.82-.04,1.32-.05,1.32-.35,2.27-.91,2.85-.56.58-1.48.86-2.74.86Z"></path><path class="uuid-ac96c6e4-9b6f-45f8-b50c-52fea5b69511" d="M368.57,45.84v-22.49h1.86v20.81h4.5v1.69h-6.35Z"></path><path class="uuid-ac96c6e4-9b6f-45f8-b50c-52fea5b69511" d="M381.46,45.84l2.4-22.49h3.49l2.39,22.49h-1.9l-.59-6.52h-3.3l-.58,6.52h-1.91ZM384.13,37.63h2.94l-.44-4.92-.63-7.68h-.79l-.63,7.69-.45,4.91Z"></path><path class="uuid-ac96c6e4-9b6f-45f8-b50c-52fea5b69511" d="M397.47,45.84v-22.49h3.42l1.35,9.19.9,11.51h.53l.87-11.51,1.38-9.19h3.42v22.49h-1.88v-6.55l.34-14.26h-.63l-1.5,14.34-1.01,6.37h-2.5l-.98-6.37-1.5-14.34h-.6l.3,14.26v6.55h-1.87Z"></path><path class="uuid-ac96c6e4-9b6f-45f8-b50c-52fea5b69511" d="M429.38,45.84v-22.49h3.18l1.25,7.13,1.91,13.68h.63l-.32-12.85-.13-7.96h1.83v22.49h-3.29l-1.41-8.07-1.6-12.74h-.67l.31,12.39.11,8.42h-1.8Z"></path><path class="uuid-ac96c6e4-9b6f-45f8-b50c-52fea5b69511" d="M446.34,45.84v-22.49h6.34v1.69h-4.49v8.65h4.2v1.67h-4.2v8.8h4.49v1.69h-6.34Z"></path><path class="uuid-ac96c6e4-9b6f-45f8-b50c-52fea5b69511" d="M464,46.04c-.88,0-1.59-.13-2.12-.38-.53-.25-.92-.65-1.17-1.2-.25-.54-.38-1.26-.4-2.14-.03-1.28-.05-2.57-.06-3.85-.01-1.28-.02-2.57-.02-3.85s0-2.57.02-3.85c.01-1.28.04-2.56.06-3.84.02-.91.16-1.64.41-2.19s.64-.96,1.17-1.21c.53-.25,1.22-.38,2.07-.38,1.24,0,2.14.29,2.71.86.57.57.88,1.52.93,2.84.03.72.04,1.44.04,2.14s-.01,1.43-.04,2.16h-1.86c.03-.76.04-1.53.04-2.3s-.01-1.53-.04-2.28c-.03-.64-.19-1.1-.47-1.39-.29-.29-.72-.44-1.31-.44s-1.06.15-1.34.44c-.29.29-.44.75-.46,1.39-.03,1.35-.05,2.69-.06,4.03s-.02,2.67-.02,3.99,0,2.66.02,3.99c.01,1.33.04,2.68.06,4.04.02.64.17,1.1.46,1.39.29.29.74.44,1.37.44s1.08-.15,1.4-.44c.31-.29.48-.75.5-1.39,0-.51.02-1.01.02-1.53,0-.51,0-1.02,0-1.53,0-.51-.01-1.01-.02-1.51h-1.87v-1.67h3.7c.02.72.03,1.57.02,2.54,0,.97-.02,2.11-.04,3.42-.05,1.32-.36,2.27-.93,2.85-.58.58-1.5.86-2.78.86Z"></path><path class="uuid-ac96c6e4-9b6f-45f8-b50c-52fea5b69511" d="M475.88,45.84v-22.49h6.34v1.69h-4.49v8.65h4.2v1.67h-4.2v8.8h4.49v1.69h-6.34Z"></path><path class="uuid-ac96c6e4-9b6f-45f8-b50c-52fea5b69511" d="M489.98,45.84v-22.49h3.42c1.28,0,2.2.28,2.77.84.57.56.89,1.5.94,2.8.03.83.05,1.62.06,2.37,0,.75,0,1.47,0,2.17,0,.7-.03,1.39-.06,2.09-.03.91-.19,1.63-.48,2.17-.29.54-.74.92-1.35,1.15l2.26,8.91h-2l-2.07-8.59h-1.65v8.59h-1.86ZM491.83,35.57h1.55c.64,0,1.1-.15,1.38-.45.29-.3.44-.77.47-1.42.03-.74.05-1.49.06-2.26,0-.76,0-1.53,0-2.28,0-.76-.03-1.51-.06-2.25-.03-.65-.18-1.12-.46-1.42s-.74-.45-1.38-.45h-1.56v10.53Z"></path><path class="uuid-ac96c6e4-9b6f-45f8-b50c-52fea5b69511" d="M505.4,45.84v-22.49h1.86v22.49h-1.86Z"></path><path class="uuid-ac96c6e4-9b6f-45f8-b50c-52fea5b69511" d="M195.21,74.18c-1.9.96-3.83,1.12-5.79.47-2.08-.66-3.87-2.08-5.37-4.24-.8-1.15-1.49-2.49-2.07-4.01l-.84-2.23h-6.18l-1.39,3.3c-.09.23-.13.41-.13.55s.03.29.09.46c.06.17.19.31.39.45s.42.2.67.2h.21v.26h-5.6v-.26h.24c.4,0,.8-.12,1.19-.35.39-.24.72-.59.98-1.06l5.84-13.32c-.68-1.54-1.41-2.59-2.17-3.17-.65-.49-1.26-.73-1.85-.73s-1.13.09-1.64.26l-.05-.26c1.26-.65,2.46-.97,3.61-.97,1.43,0,2.71.56,3.85,1.68,1.12,1.1,2.1,2.69,2.96,4.76l3.8,9.37c1.43,3.54,2.9,5.98,4.4,7.3.61.54,1.24.92,1.88,1.13.65.21,1.19.31,1.64.31s.88-.05,1.3-.16l.03.26ZM175.42,63.05h5.34l-1.83-4.84c-.09-.24-.21-.58-.37-1.01-.16-.43-.26-.73-.31-.9l-2.83,6.75Z"></path><path class="uuid-ac96c6e4-9b6f-45f8-b50c-52fea5b69511" d="M196.7,52.22h-1.2v15.26c.02.65.3,1.13.84,1.44.26.14.54.21.84.21h.34v.26h-7.96v-.26h.34c.63,0,1.11-.27,1.44-.81.14-.24.22-.51.24-.81v-14.53c-.02-.45-.19-.84-.51-1.16-.32-.32-.71-.48-1.17-.48h-.34v-.26h8.98c1.69,0,3.12.37,4.29,1.1.59.37,1.06.88,1.41,1.53.35.65.52,1.4.52,2.23s-.14,1.59-.43,2.29c-.29.7-.77,1.31-1.44,1.83-.67.52-1.48.84-2.42.94,1.01.33,1.9,1.1,2.67,2.3,1.88,3.02,3.28,4.82,4.19,5.39.45.28,1.02.43,1.7.44v.26h-2.57c-1.48,0-2.72-.21-3.72-.62-.99-.41-1.81-1.11-2.43-2.11-.31-.51-.72-1.27-1.2-2.29-.49-1.02-.81-1.75-.97-2.19-.47-1.05-1.06-1.63-1.78-1.75v-.26h.81c.79,0,1.48-.24,2.08-.71s1.01-1.24,1.22-2.3c.07-.37.1-.65.1-.86,0-1.43-.29-2.46-.86-3.1-.58-.64-1.32-.96-2.23-.98h-.79Z"></path><path class="uuid-ac96c6e4-9b6f-45f8-b50c-52fea5b69511" d="M208.74,61.75l.21-.86h7.85l.21.86-.21.89h-7.85l-.21-.89Z"></path><path class="uuid-ac96c6e4-9b6f-45f8-b50c-52fea5b69511" d="M226.18,52.22h-1.2v15.26c.02.65.3,1.13.84,1.44.26.14.54.21.84.21h.34v.26h-7.96v-.26h.34c.63,0,1.11-.27,1.44-.81.14-.24.22-.51.24-.81v-14.53c-.02-.45-.19-.84-.51-1.16-.32-.32-.71-.48-1.17-.48h-.34v-.26h8.98c1.69,0,3.12.37,4.29,1.1.59.37,1.06.88,1.41,1.53.35.65.52,1.4.52,2.23s-.14,1.59-.43,2.29c-.29.7-.77,1.31-1.44,1.83-.67.52-1.48.84-2.42.94,1.01.33,1.9,1.1,2.67,2.3,1.88,3.02,3.28,4.82,4.19,5.39.45.28,1.02.43,1.7.44v.26h-2.57c-1.48,0-2.72-.21-3.72-.62-.99-.41-1.81-1.11-2.43-2.11-.31-.51-.72-1.27-1.2-2.29-.49-1.02-.81-1.75-.97-2.19-.47-1.05-1.06-1.63-1.78-1.75v-.26h.81c.79,0,1.48-.24,2.08-.71s1.01-1.24,1.22-2.3c.07-.37.1-.65.1-.86,0-1.43-.29-2.46-.86-3.1-.58-.64-1.32-.96-2.23-.98h-.79Z"></path><path class="uuid-ac96c6e4-9b6f-45f8-b50c-52fea5b69511" d="M256.38,69.13h.24v.26h-8.35v-.26h.24c.38,0,.67-.12.85-.35.18-.24.27-.46.27-.67s-.04-.42-.13-.63l-1.28-3.22h-6.13l-1.36,3.22c-.09.23-.13.44-.13.64s.09.42.27.65c.18.24.48.35.88.35h.21v.26h-5.6v-.26h.24c.4,0,.8-.12,1.2-.37.4-.24.73-.61.99-1.1l6.05-13.69c.82-1.73,1.26-2.87,1.31-3.43h.24l7.77,17.07c.26.51.59.89.99,1.14.4.25.81.38,1.23.38ZM242.54,63.16h5.24l-2.54-6.44-2.7,6.44Z"></path><path class="uuid-ac96c6e4-9b6f-45f8-b50c-52fea5b69511" d="M277.19,51.33c-.44,0-.81.15-1.13.46-.31.31-.48.68-.5,1.11v13.51c0,1.17.08,2.16.24,2.96l.08.39h-.24l-13.22-12.59v10.39c0,.44.16.81.47,1.11.31.31.69.46,1.13.46h.5v.26h-7.93v-.26h.47c.45,0,.84-.15,1.15-.46s.47-.69.47-1.14v-13.59c0-1.15-.08-2.11-.24-2.88l-.05-.39h.24l13.22,12.59v-10.34c-.02-.45-.18-.83-.5-1.14-.31-.31-.69-.46-1.13-.46h-.47v-.26h7.93v.26h-.5Z"></path><path class="uuid-ac96c6e4-9b6f-45f8-b50c-52fea5b69511" d="M279.47,69.13c.45,0,.84-.16,1.16-.48s.49-.71.51-1.17v-14.53c-.02-.45-.19-.84-.51-1.15-.32-.31-.71-.47-1.16-.47h-.34v-.26h7.96l-.03.26h-.31c-.45,0-.85.16-1.18.47-.33.31-.5.7-.5,1.15v14.53c0,.45.17.84.5,1.17.33.32.72.48,1.18.48h.31l.03.26h-7.96v-.26h.34Z"></path><path class="uuid-ac96c6e4-9b6f-45f8-b50c-52fea5b69511" d="M296.46,52.22h-1.2v15.26c.02.65.3,1.13.84,1.44.26.14.54.21.84.21h.34v.26h-7.96v-.26h.34c.63,0,1.11-.27,1.44-.81.14-.24.22-.51.24-.81v-14.53c-.02-.45-.19-.84-.51-1.16-.32-.32-.71-.48-1.17-.48h-.34v-.26h8.98c1.69,0,3.12.37,4.29,1.1.59.37,1.06.88,1.41,1.53.35.65.52,1.4.52,2.23s-.14,1.59-.43,2.29c-.29.7-.77,1.31-1.44,1.83-.67.52-1.48.84-2.42.94,1.01.33,1.9,1.1,2.67,2.3,1.88,3.02,3.28,4.82,4.19,5.39.45.28,1.02.43,1.7.44v.26h-2.57c-1.48,0-2.72-.21-3.72-.62-1-.41-1.81-1.11-2.43-2.11-.31-.51-.72-1.27-1.2-2.29-.49-1.02-.81-1.75-.97-2.19-.47-1.05-1.06-1.63-1.78-1.75v-.26h.81c.79,0,1.48-.24,2.08-.71.6-.47,1.01-1.24,1.22-2.3.07-.37.1-.65.1-.86,0-1.43-.29-2.46-.86-3.1-.58-.64-1.32-.96-2.23-.98h-.79Z"></path><path class="uuid-ac96c6e4-9b6f-45f8-b50c-52fea5b69511" d="M325.62,51.33h-.37c-.52,0-1.02.15-1.49.44-.47.3-.85.65-1.13,1.07l-5.16,8.22v6.41c0,.45.17.84.5,1.17.33.32.72.48,1.18.48h.31l.03.26h-7.96v-.26h.34c.45,0,.84-.16,1.17-.47.32-.31.49-.7.51-1.15v-6.47l-5-8.22c-.26-.42-.63-.77-1.11-1.06-.48-.29-.97-.43-1.48-.43h-.37v-.26h8.66v.26h-.34c-.38,0-.68.17-.89.52-.11.19-.16.38-.16.56s.04.36.13.54l3.74,6.81,3.87-6.81c.1-.17.16-.35.16-.54s-.06-.36-.18-.54c-.21-.37-.51-.55-.89-.55h-.31v-.26h6.23v.26Z"></path><path class="uuid-ac96c6e4-9b6f-45f8-b50c-52fea5b69511" d="M346.12,55.57c0,.82-.21,1.55-.62,2.2-.41.65-.94,1.09-1.58,1.33,2.02.1,3.5.9,4.42,2.38.47.75.71,1.68.71,2.77s-.42,2.1-1.27,3.01c-.85.91-1.92,1.55-3.23,1.94-1.31.38-2.69.58-4.14.58-3.61,0-6.2-.96-7.75-2.88-1-1.22-1.49-2.87-1.49-4.95,0-.35.02-.7.05-1.05l.26-.03c.12,3,1.19,5.15,3.22,6.44v-14.37c-.02-.65-.31-1.12-.86-1.41-.24-.14-.51-.21-.81-.21h-.34v-.26h6.65c1.94,0,3.55.39,4.84,1.16,1.29.78,1.94,1.89,1.94,3.34ZM339.36,68.55c1.62,0,2.89-.43,3.81-1.28s1.37-1.98,1.37-3.38c0-.87-.16-1.61-.48-2.21-.32-.6-.75-1.05-1.27-1.35-.96-.58-2.05-.86-3.27-.86v-.24c.56,0,1.03-.2,1.41-.6.66-.7,1-1.65,1-2.85s-.27-2.09-.8-2.67c-.53-.58-1.37-.88-2.5-.92v16.33c.25.02.49.03.73.03Z"></path><path class="uuid-ac96c6e4-9b6f-45f8-b50c-52fea5b69511" d="M368.71,69.13h.24v.26h-8.35v-.26h.24c.38,0,.67-.12.85-.35.18-.24.28-.46.28-.67s-.04-.42-.13-.63l-1.28-3.22h-6.12l-1.36,3.22c-.09.23-.13.44-.13.64s.09.42.27.65c.18.24.48.35.88.35h.21v.26h-5.6v-.26h.24c.4,0,.8-.12,1.2-.37.4-.24.73-.61.99-1.1l6.05-13.69c.82-1.73,1.26-2.87,1.31-3.43h.24l7.77,17.07c.26.51.59.89.99,1.14s.81.38,1.23.38ZM354.86,63.16h5.24l-2.54-6.44-2.7,6.44Z"></path><path class="uuid-ac96c6e4-9b6f-45f8-b50c-52fea5b69511" d="M389.52,51.33c-.44,0-.81.15-1.13.46-.31.31-.48.68-.5,1.11v13.51c0,1.17.08,2.16.24,2.96l.08.39h-.24l-13.22-12.59v10.39c0,.44.16.81.47,1.11.31.31.69.46,1.13.46h.5v.26h-7.93v-.26h.47c.45,0,.84-.15,1.15-.46s.47-.69.47-1.14v-13.59c0-1.15-.08-2.11-.24-2.88l-.05-.39h.24l13.22,12.59v-10.34c-.02-.45-.18-.83-.5-1.14-.31-.31-.69-.46-1.12-.46h-.47v-.26h7.93v.26h-.5Z"></path><path class="uuid-ac96c6e4-9b6f-45f8-b50c-52fea5b69511" d="M408.6,53.53c1.8,1.64,2.7,3.87,2.7,6.7s-.9,5.06-2.7,6.7c-1.8,1.64-4.24,2.46-7.33,2.46h-9.5v-.26h.34c.45,0,.84-.16,1.17-.48.32-.32.49-.71.51-1.17v-14.66c-.05-.42-.24-.77-.55-1.06-.31-.29-.69-.43-1.13-.43h-.34v-.26h9.5c3.09,0,5.53.82,7.33,2.46ZM400.93,68.29c1.26,0,2.34-.33,3.26-.98s1.62-1.59,2.11-2.8c.49-1.21.73-2.64.73-4.28,0-2.48-.54-4.44-1.64-5.89-1.09-1.45-2.58-2.17-4.46-2.17h-3.22v16.12h3.22Z"></path><path class="uuid-ac96c6e4-9b6f-45f8-b50c-52fea5b69511" d="M430.83,69.13h.24v.26h-8.35v-.26h.24c.38,0,.67-.12.85-.35.18-.24.28-.46.28-.67s-.04-.42-.13-.63l-1.28-3.22h-6.12l-1.36,3.22c-.09.23-.13.44-.13.64s.09.42.27.65c.18.24.48.35.88.35h.21v.26h-5.6v-.26h.24c.4,0,.8-.12,1.2-.37.4-.24.73-.61.99-1.1l6.05-13.69c.82-1.73,1.26-2.87,1.31-3.43h.24l7.77,17.07c.26.51.59.89.99,1.14s.81.38,1.23.38ZM416.98,63.16h5.24l-2.54-6.44-2.7,6.44Z"></path><path class="uuid-ac96c6e4-9b6f-45f8-b50c-52fea5b69511" d="M462.08,74.18c-1.9.96-3.83,1.12-5.79.47-2.08-.66-3.87-2.08-5.37-4.24-.8-1.15-1.49-2.49-2.07-4.01l-.84-2.23h-6.18l-1.39,3.3c-.09.23-.13.41-.13.55s.03.29.09.46c.06.17.19.31.39.45.2.13.42.2.67.2h.21v.26h-5.6v-.26h.24c.4,0,.8-.12,1.19-.35.39-.24.72-.59.98-1.06l5.84-13.32c-.68-1.54-1.41-2.59-2.17-3.17-.65-.49-1.26-.73-1.85-.73s-1.13.09-1.64.26l-.05-.26c1.26-.65,2.46-.97,3.61-.97,1.43,0,2.71.56,3.85,1.68,1.12,1.1,2.1,2.69,2.96,4.76l3.8,9.37c1.43,3.54,2.9,5.98,4.4,7.3.61.54,1.24.92,1.88,1.13s1.19.31,1.64.31.88-.05,1.3-.16l.03.26ZM442.29,63.05h5.34l-1.83-4.84c-.09-.24-.21-.58-.37-1.01-.16-.43-.26-.73-.31-.9l-2.83,6.75Z"></path><path class="uuid-ac96c6e4-9b6f-45f8-b50c-52fea5b69511" d="M466.56,69.74c-3.37,0-6.01-.86-7.93-2.55-1.92-1.69-2.88-4.01-2.88-6.96s.95-5.27,2.85-6.98,4.51-2.55,7.83-2.55c2.53,0,4.7.47,6.52,1.41l.05,4.5h-.21c-.89-3.21-2.92-4.82-6.1-4.82-2.06,0-3.69.75-4.88,2.24-1.2,1.49-1.79,3.53-1.79,6.11s.57,4.63,1.71,6.15,2.69,2.3,4.65,2.36c2.02,0,3.57-.51,4.63-1.52,1.08-1.05,1.83-2.84,2.25-5.39h.21l.26,4.5c-1.41,2.34-3.8,3.5-7.17,3.49Z"></path><path class="uuid-ac96c6e4-9b6f-45f8-b50c-52fea5b69511" d="M476.35,69.13c.45,0,.84-.16,1.17-.48.32-.32.49-.71.51-1.17v-14.58c-.05-.61-.34-1.06-.86-1.36-.26-.14-.53-.21-.81-.21h-.34v-.26h10.03c.54,0,1.13-.05,1.78-.16s1.1-.21,1.36-.31v4.58h-.26v-.31c0-.79-.23-1.42-.69-1.9-.46-.48-1.09-.74-1.87-.77h-4.4v7.62h3.46c.65-.02,1.18-.24,1.6-.67.42-.43.63-.96.63-1.58v-.24h.26v6.05h-.26v-.21c0-.87-.35-1.52-1.05-1.94-.35-.19-.73-.3-1.15-.31h-3.48v7.36h3.43c1.27,0,2.34-.37,3.21-1.1.86-.73,1.5-1.77,1.92-3.12h.26l-1.2,5.34h-13.56v-.26h.34Z"></path><path class="uuid-ac96c6e4-9b6f-45f8-b50c-52fea5b69511" d="M505.17,69.13c.45,0,.8-.11,1.05-.34.4-.4.61-.83.63-1.28v-6.68h-8.48v6.65c0,.45.17.84.5,1.17.33.32.72.48,1.18.48h.31l.03.26h-7.96v-.26h.34c.45,0,.84-.16,1.17-.48.32-.32.49-.71.51-1.17v-14.53c-.02-.45-.19-.84-.51-1.15-.32-.31-.71-.47-1.17-.47h-.34v-.26h7.96l-.03.26h-.31c-.45,0-.85.16-1.18.47-.33.31-.5.7-.5,1.15v6.75h8.48v-6.75c-.02-.45-.19-.84-.51-1.15-.32-.31-.71-.47-1.17-.47h-.34v-.26h7.96v.26h-.34c-.45,0-.85.16-1.18.48-.33.32-.5.71-.5,1.16v14.5c0,.45.17.84.5,1.17.33.32.72.48,1.18.48h.34v.26h-7.96v-.26h.34Z"></path><path class="uuid-b54134de-b618-4b83-87d8-3c14c23f887a" d="M23.72,24.71c-.04.13-.15.23-.29.28l-.48-.56c-.09-.11-.14-.15-.24-.25l-.25-.28c-.11-.1-.12-.15-.24-.25l-.85-.7c-.33-.25-.88-.53-1.34-.7-.26-.09-.55-.17-.81-.21-.19-.03-.76-.04-.97-.01-.81.12-1.99.67-2.58,1.27-.08.08-.02.04-.14.13-.09.07-.17.16-.25.24-.2.22-.46.44-.62.66-.04.06-.06.1-.11.15-.82.92-1.44,1.93-2.14,2.96l-1.63,2.45c-.53.77-1.13,1.61-1.78,2.3l-.76.76c-.1.1-.15.15-.27.26-1.69,1.53-2.89,1.27-3.28,1.89-.47.75.1,1.21.5,1.69.24.29.41.62.58.98.32.66.68,2.09.7,2.88.01.48.1,1.04.11,1.47,0,.32-.05.68-.01,1.02.03.33.06.68.01,1.02-.03.21,0,.24,0,.46.01.2-.03.33-.03.53,0,.16.03.32,0,.48-.05.29-.04.15,0,.43.02.17-.03.33-.04.49v1.55c.02.48-.04,1.51.07,1.95.04.16.03.05.01.2-.02.17.2,1.36.25,1.53.08.29.13.53.23.8.2.57.44.91.7,1.35.19.31.71.77,1.07.98,1.06.61,2.2.6,3.38.35.29-.06,1.49-.5,1.58-.5l.13.36c-.25.09-.5.19-.72.3l-1.3.71c-.12.07-.19.13-.29.2-.3.22-.54.45-.81.71-1.56,1.5-1.6,3.71-.66,5.59l.7,1.31c.24.42.57.81.83,1.22.31.48.71.98,1.06,1.44l2.16,2.92c.29.39.55.78.8,1.21.24.43.52.85.73,1.33.43,1,.84,1.96.86,3.23.01.55-.12,1.21.42,1.51,1.06.6,1.44-1.06,5.1-.33,2.27.45,4.03,1.22,6.11,1.94,2.22.77,5.62,2.09,7.87.45.17-.12.41-.33.53-.5.15-.2.29-.37.42-.6.89-1.61.61-2.8.72-3.23l.41-.02c.03.09.21,1.28.33,1.7.14.51.35,1.01.58,1.43.25.44.55.76.89,1.11,1.13,1.16,3.34,1.23,4.79.81l1.57-.44c.53-.15,1.03-.33,1.53-.52.96-.37,1.96-.73,2.96-1.08,1.01-.36,2.02-.65,3.13-.91,1.12-.26,2.51-.3,3.61-.03.5.12,1.05.52,1.58.26.21-.1.37-.28.47-.55.13-.32.02-.53,0-.87-.15-2.32,1.21-4.34,2.17-5.79l2.97-4.05c.12-.2.26-.39.41-.61.88-1.25,2.46-3.69,2.06-5.77-.09-.5-.33-1.12-.56-1.45l-.44-.54c-.4-.46-1.24-.95-1.82-1.19-.24-.1-.46-.19-.73-.28-.26-.09-.53-.15-.76-.25-.02-.14,0-.26.06-.37.38.02,1.98.62,3.58.34,1.04-.18,1.98-.6,2.65-1.45.06-.08.16-.19.22-.27.76-1.09,1.03-2.65,1.08-3.98,0-.15,0-.39.01-.53.09-.64,0-.46,0-.91v-2.01c-.03-.32-.07-.64-.07-.98.02-.68-.07-1.37-.03-2.04.02-.3-.05-.74.01-1.01.06-.29,0-.19,0-.39,0-.09.04-.17.04-.23.01-.12-.02-.13,0-.26.04-.27.03-.56.08-.86.25-1.51.41-2.62,1.27-3.85.24-.34.75-.78.47-1.41-.39-.9-1.24-.4-2.71-1.4l-.85-.66c-.1-.08-.13-.16-.26-.27-.06-.05-.08-.05-.13-.1-.05-.05-.06-.07-.13-.14-.48-.44-1.7-1.97-2.07-2.55-.26-.42-.57-.79-.84-1.21-.14-.22-.24-.38-.41-.62-.43-.59-.8-1.26-1.24-1.84-.59-.79-1.14-1.59-1.82-2.31-.16-.17-.3-.36-.49-.53l-.55-.47c-1.16-.84-2.3-1.4-3.79-.94-.26.08-.48.18-.71.31-.33.19-.61.37-.88.64-.11.11-.19.14-.29.24l-.8.97c-.14.22-.37.64-.53.8-.16,0-.26-.09-.33-.2.08-.22.26-.43.37-.64l.29-.5c.03-.07.04-.12.07-.19.88-1.84,1.16-3.9-.19-5.58-.09-.12-.17-.19-.26-.28-.18-.17-.35-.37-.55-.51-.74-.54-1.48-.95-2.36-1.29-.26-.1-.49-.22-.76-.3-.51-.14-1.04-.4-1.55-.52-1.1-.26-4.69-1.44-5.53-1.81-.23-.1-.51-.21-.7-.31-.49-.27-.89-.47-1.34-.77-.23-.15-.42-.25-.62-.43l-.53-.49c-.18-.17-.36-.35-.5-.56-.16-.24-.52-.77-.68-.91-.33-.27-.93-.17-1.17.08-.3.3-.46.78-.74,1.11-.18.21-.39.49-.64.69l-.42.34c-.06.05-.08.08-.14.12-.21.15-.39.25-.65.41-1.95,1.26-5.54,2.11-7.73,2.85-1.48.5-3.08,1.02-4.27,2.05-.49.43-.62.57-1.01,1.11-1,1.38-.66,3.36.26,4.8l.87,1.24h0Z"></path><path class="uuid-a0d790a1-6bfc-48ce-a6b7-c2fe9ee7bca1" d="M25.08,24.84c-.1.13-.29.26-.44.38-.25.22-1.12,1.09-1.4,1.13-.35-.71-1.33-1.69-1.94-2.26-.63-.58-1.81-1.29-3.07-1.08-2.28.37-4,3.48-5.24,5.28l-.84,1.27c-.96,1.53-2.38,3.41-3.83,4.6-.9.73-1.67,1.12-2.8,1.46.03.2.24.34.37.51.72.92,1.07,1.99,1.35,3.13.48,2.01.29,6.4.25,8.6-.04,2.12.13,4.67,1.38,5.85,1.33,1.25,3.26.68,4.81.02.2-.09.45-.24.63-.29l.04.05s.03.08.04.08c.02.04.03.1.05.15l.34.83c.1.23.41.91.4,1.16-1.81.52-4.13,1.64-4.59,3.57-.5,2.08,1.1,4.21,2.22,5.77,2.05,2.86,4.48,5.46,5.33,8.97.17.7.07,1.25.13,1.95.2-.03.84-.37,1.28-.46,1.62-.33,2.94-.13,4.53.25,2.61.63,5.09,1.85,7.7,2.56.89.24,1.98.46,2.99.34,1.01-.12,1.73-.61,2.15-1.29.4-.65.72-1.87.6-2.83-1.32,0-2.66.02-3.99.04-3.93.05-7.91,0-11.85.06-.51,0-1.47.1-1.84-.1-.48-.26-.68-.86-.32-1.29.19-.23.29-.33.47-.51l2.38-2.58c.34-.37.64-.69.96-1.04.28-.31.62-.82,1.15-.86.76-.07,1.59.02,2.35,0,.14-1.38-.01-3.49.02-4.96h.3s2.23-.03,2.23-.03c0-.31.03-.63,0-.93,0-.02,0-.09-.04-.13-.22-.07-1.1-.02-1.42-.01-.32,0-.21-.18-.22-.48v-2.16c0-.44-.04-1.03,0-1.46.44-.07,1.42.06,1.75-.05v-1.35c-.85-.41-1.7-.89-2.52-1.42-1.62-1.06-2.92-2.15-4.2-3.67-.59-.7-1.11-1.51-1.63-2.31-.54-.82-.92-1.76-1.3-2.65-.4-.93-.69-1.94-.99-2.97-.15-.5-.26-1.05-.39-1.58l-.32-1.68c-.04-.28-.11-.53-.15-.83-.11-1.09-.26-1.57-.23-2.8.17.07.58.75.7.9,1.41,1.82,2.77,3.62,4.55,5.15.18.16.67.7.89.72,0-.13-.58-2.74-.56-3.96.13.06.26.33.35.47.11.16.21.32.34.53.64,1.02,1.4,2.08,2.16,2.99.88,1.06,1.82,2.25,2.89,3.13.11.09.33.34.49.34v-1.57s1.28-.01,1.28-.01c.4-.99.47-1.14,1.1-2.04l1.35-1.77c.16.06,2.08,2.35,2.21,2.55l.5.91c.1.18-.01.07.13.09.07-.16.11-.39.18-.58.07-.18.15-.35.25-.5.11-.17.23-.26.24-.52l.06-3.71c0-.75,0-2.28.05-2.96.03-.46,0-1.03.01-1.5l.07-4.43c.02-.99.07-1.96.06-2.95,0-1,.05-2.01.04-2.99,0-1.01.07-2.05.02-3.04-.29-.22-.64-.98-.67-1.41-.08-1.18.96-1.79,1.54-2.64.16-.23.62-1.12.83-1.29l.96,1.29c.62.84,1.87,1.62,1.56,2.85-.2.84-.86,1.24-.9,1.33-.04.11.22,6.45.24,7.9.06,3.98.2,7.96.26,11.95.03,2-.17.86.65,2.14.38.59.26.57.43.97.16,0,.17-.17.28-.42.36-.79,1.08-1.36,1.62-2.01l.59-.69c.08-.08.05-.05.11-.09.07.05.05.03.11.1l1.33,1.51c.37.43.68.84.95,1.33.09.17.13.42.25.55.31.1.82,0,1.18.02.09.31,0,1.06.03,1.42.14-.02.18-.07.3-.17l.75-.62c1.54-1.45,2.99-3.14,4.18-4.9.22-.32,1.32-2.09,1.44-2.16.04.45-.1,1.29-.14,1.77h-.02c-.08.53-.16.99-.26,1.47-.04.21-.09.46-.15.68-.04.17-.16.52-.15.69.18-.01.61-.48.76-.63.73-.72,1.37-1.41,2.08-2.23.62-.73,1.82-2.22,2.33-3.03.09-.14.09-.16.21-.21.02,1.24-.09,2.39-.32,3.5-.05.22-.08.57-.14.79-.15.48-.32,1.7-.52,2.34-.14.46-.28.96-.43,1.44-.16.52-.32.95-.5,1.42-1.29,3.51-3.67,6.54-6.72,8.62-.38.26-.79.51-1.18.76-.4.25-.83.46-1.22.71v1.12c.32.03.63,0,.95,0,.48-.01.25.14.27,1.36.01.87.05,1.79.02,2.66-.28.01-1.31-.02-1.48.04v1.08s2.16.03,2.16.03l.05,4.84c.67.02,1.45,0,2.11,0,.94-.01.9.1,1.42.61,1.38,1.37,2.69,2.79,4.04,4.17.22.22.36.36.28.72-.23,1.01-1.55.72-2.4.73-2.73.03-5.41.02-8.14.05l-6.13.04c-.49,0-1.64-.03-2.01,0-.07.29.16,1.14.23,1.43.29,1.22,1.12,2.51,2.45,2.78,2.01.41,3.82-.39,5.7-.99.39-.13.86-.31,1.24-.47.45-.18.84-.3,1.29-.47.86-.33,1.72-.59,2.65-.85,1.65-.47,3.65-.68,5.35-.19.19.06.51.2.65.21.04-.46-.11-.84.02-1.89.35-2.85,3.51-6.59,5.15-8.87.9-1.26,2.62-3.61,2.47-5.5-.1-1.21-.73-1.86-1.59-2.42-.7-.46-2.08-.88-3.02-1,0-.19.23-.92.28-1.17.1-.46.16-.8.29-1.19.58.07,1.59.6,2.97.65,2.44.07,3.57-.91,4.09-3.2.82-3.64-.67-8.97.8-13.42.22-.67.52-1.24.9-1.8.08-.12.35-.37.34-.52-1.14-.13-2.09-.73-2.84-1.31-1.39-1.08-2.84-3-3.82-4.52-.29-.46-.52-.8-.84-1.25l-.86-1.27c-.87-1.35-2.57-3.68-4.26-4.11-1.3-.33-2.2.18-2.94.92-1.07,1.08-1.5,2.23-1.73,2.48-.13-.03-.85-.52-1.01-.62-.24-.16-.77-.44-.96-.65.03-.11.27-.42.38-.59.43-.65.76-1.25,1.07-1.98.98-2.32.22-4.16-1.98-5.29-.91-.47-1.88-.83-2.91-1.15-2.84-.89-6.31-1.65-8.67-3.42-.68-.51-1.28-1.07-1.75-1.8l-.23-.31c-.09.06-.28.47-.38.61-.12.18-.26.38-.42.56-.64.74-1.43,1.31-2.25,1.77-.88.49-1.84.84-2.81,1.22-1.5.59-3.09.93-4.61,1.45-1.76.61-4.16,1.39-5.05,2.97-.57,1.01-.46,2.17.09,3.18.35.66.74,1.2,1.22,1.78.11.13.41.42.48.57h0ZM28.39,29.39c-.66.17-.65.45-.64,1.21l.08,5.67c.02,1.62.05,3.34,1.22,4.45.3.28.73.55,1.17.71.99.35,2.27.32,3.23-.03.86-.32,1.59-1.05,1.96-1.83.46-.96.51-1.96.5-3.21l-.08-5.64c-.01-.57.04-1.22-.5-1.39-.28-.08-1.53-.07-1.81.03-.54.19-.44.91-.44,1.43.02,1.25.02,2.5.05,3.75.02.83.15,3.05-.08,3.66-.2.54-.42.8-1.05.82-.67.02-1.04-.11-1.26-.63-.25-.59-.2-2.81-.21-3.63-.02-1.25-.04-2.5-.05-3.75,0-.56.08-1.28-.35-1.54-.27-.17-1.43-.17-1.76-.08h0ZM44.5,35.41c.12.05.05.03.18.31l1.82,3.91c.11.24.2.45.33.7.12.24.22.52.34.72.15.26.3.34.63.39.24.04.74,0,1.01,0,1.87-.02,1.6-.12,1.57-2.59l-.11-8.28c0-.69.11-1.39-.6-1.52-.3-.06-.66-.03-.99-.02-.34,0-.67-.03-.92.17-.42.34-.27,1.22-.27,1.79.02,1.36.09,2.83.05,4.17-.12-.06-.06,0-.19-.3l-1.82-3.89c-.23-.51-.43-.96-.66-1.43-.13-.25-.28-.37-.6-.43-.25-.05-.73-.01-1.01,0-.65,0-1.42-.12-1.58.56-.11.5-.01,3.35,0,4.1l.08,6.2c0,.67-.11,1.38.58,1.53.37.08,1.66.07,1.91-.12.43-.32.29-1.08.28-1.79-.01-1.02-.09-3.3-.05-4.16h0Z"></path><path class="uuid-dfcb52c2-292c-48d5-9be7-8379997a08e4" d="M36.93,46.3c-.22.04-1.31.07-1.47.02-.05-.03-.25-.7-.38-.97-.25-.55-.69-1.07-1.11-1.54-.15-.17-.52-.63-.66-.71-.16.13-.43.54-.56.7-.43.56-.69.95-.96,1.61-.13.33-.2.63-.31.95h-.89c-.14.02-.06.01-.1.05-.11.2.02,2.46.04,2.86.35,6.52,2.7,8.2,7.52,11.86.18.14.73.58.88.63.7-.42,2.95-2.06,3.51-2.52,1.27-1.04,2.09-1.8,2.99-3.06.75-1.05,1.46-2.75,1.7-4.28.07-.44.13-.84.19-1.3.1-.71.3-3.9.17-4.28-.16,0-.32,0-.47,0-.83,0-.33.09-.79-.97-.36-.8-1.08-1.46-1.59-2.07-.12.03-1.1,1.16-1.18,1.26-.39.5-.59,1.01-.7,1.79l-1.59.06c0-.58.04-.86-.15-1.36-.11-.3-.37-.66-.58-.89l-1.5-1.45c-.09.06-.25.28-.32.36-.53.64-1.27,1.24-1.52,1.99-.16.47-.09.77-.18,1.24h0ZM35.01,56.85c.32-.05,5.15-.02,5.87,0,.41,0,1.64.05,1.96-.02v-7.5s-.05-.04-.05-.04l-.04-.05s-.01-.02-.02-.03c-.57-.36-1.14-.74-1.74-1.14l-1.8-1.16-2.13.97c-.33.15-1.94.86-2.11,1l.05,7.99h0Z"></path><path class="uuid-71767cf0-5296-4581-a6c7-b85b22a0d7af" d="M27.38,68.18c.42.05,2.18-.04,2.82-.03h8.44c1.71-.03,3.96-.07,5.64-.04.94.02,4.86.07,5.57,0,.07-.26,0-1.75,0-2.13l-.02-2.04c-.02-.19-.08-.15-.34-.14l-2.5.03c-.91,0-1.86-.06-2.8-.01-.46.03-.9,0-1.36,0-.69,0-2.16.04-2.8,0-.43-.03-1,0-1.44.02-.45.02-.91-.02-1.36-.02l-4.28.04c-1.11,0-4.85-.07-5.64.03,0,.47.02,4.11.08,4.3h0ZM29.28,72.1h-.59s-.04,0-.04,0v-.04s0-.08,0-.08v-.04s.04,0,.04,0h.04s.05-.02.05-.02c0,0,.02,0,.02,0h0s0-.01,0-.01h0s.49.19.49.19h0ZM28.8,71.9l-.09-.26h-.32s-.02.07-.02.07l-.03.09v.05s-.02.03-.02.03v.03s0,0,0,0c0,0,0,0,.01.01,0,0,.02,0,.04.01h0s.04,0,.07.01h.04s0,.04,0,.04v.08s0,.04,0,.04h-.04s-.45,0-.45,0h-.04s0-.04,0-.04v-.08s0-.04,0-.04h.04s.03,0,.03,0h0s.03,0,.03,0h0s.01,0,.02,0h0s0,0,.01,0h0s.02-.01.02-.02h0s.01-.02.02-.03c0,0,.01-.02.02-.03,0-.01.01-.03.01-.04h0s.17-.56.17-.56l.19-.61v-.03s.04,0,.04,0h.15s.03,0,.03,0v.03s.15.42.15.42h0s.11.32.11.32l.08.25.07.2h0v.02s.01,0,.01,0v.02s.01,0,.01,0c0,0,0,.01.01.02l.02.02h.02s0,0,0,0h.02s.03.01.03.01h.02s.04,0,.04,0v.04s0,.08,0,.08v.04s-.04,0-.04,0h.04s-.04,0-.04,0l-.49-.2h0ZM33.4,66.2c-.35,0-2.05.15-2.19-.12-.05-.33.15-.32.26-.55-.39.04-.89.56-.71.89.17.32,1,.26,1.4.25.4-.01,1.29.05,1.53-.16.54-.47-.48-.9-.5-.92.3-.23.45.05.51.14.25,0,.22-.02.4-.09-.03-.15-.03-.16-.14-.28-.5-.55-1.49.08-1.05.5.19.18.46.05.51.33h0ZM28.65,71.46l-.11-.33-.1.33h.2ZM32.03,72.06h-.42s-.02,0-.02,0v-.02s-.11-.19-.11-.19c-.03-.05-.06-.1-.08-.14-.03-.04-.05-.09-.08-.13l-.07-.1v.35s0,.02,0,.02h0s0,.01,0,.02h0s0,0,0,0h0s.01.01.01.01h.01s.02.01.02.01h0s.03,0,.03,0h.02s.03,0,.03,0v.03s0,.08,0,.08v.04s-.04,0-.04,0h-.58s-.04,0-.04,0v-.04s0-.08,0-.08v-.04s.04,0,.04,0h.06s.03-.02.03-.02h.01s0-.01.01-.01c0,0,0,0,0,0v-.02s0-.02,0-.03v-.98s-.01-.03-.01-.03h0s0-.02,0-.02h0s-.01-.02-.01-.02h-.03s-.03-.02-.03-.02h-.05s-.03-.02-.03-.02v-.03s0-.08,0-.08v-.04s.04,0,.04,0h.61c.07,0,.14,0,.19.01.06.01.11.04.15.07.04.03.07.07.09.12.02.05.03.1.03.16,0,.05,0,.1-.02.14-.01.04-.03.08-.05.12h0s-.05.06-.09.09c-.02.02-.05.03-.08.05l.1.16.07.11.07.12.03.04.04.05h0s.02.03.03.04c0,0,.02.01.02.01h.01s.02,0,.02,0h.04s.04.01.04.01v.04s0,.08,0,.08v.04s-.04,0-.04,0h0ZM31.45,70.99s0-.08-.02-.11c0-.03-.02-.05-.04-.07h0s-.04-.03-.06-.04h0s-.05-.01-.09-.01h-.02s0,.5,0,.5h.02s.06,0,.08-.02c.02-.01.04-.03.06-.05.02-.02.03-.05.04-.08,0-.04.01-.08.01-.13h0ZM33.98,71.61h-.46s-.04,0-.04,0v-.04s0-.22,0-.22v-.04s.04,0,.04,0h.46s.04,0,.04,0v.04s0,.22,0,.22v.04s-.04,0-.04,0h0ZM36.84,72h-.42s-.02,0-.02,0v-.02s-.11-.19-.11-.19h0c-.03-.05-.06-.1-.08-.14-.03-.04-.05-.09-.08-.13l-.07-.1v.35s0,.02,0,.02h0s0,.01,0,.02h0s0,0,0,.01h.01s.02.02.02.02h.02s0,0,0,0h.03s.02.01.02.01h.03s0,.04,0,.04v.08s0,.04,0,.04h-.04s-.58,0-.58,0h-.04s0-.04,0-.04v-.08s0-.04,0-.04h.04s.06-.01.06-.01h.03s.01-.01.01-.01c0,0,0,0,.01,0,0,0,0,0,0,0,0,0,0-.01,0-.02,0,0,0-.02,0-.03v-.98s-.01-.03-.01-.03v-.02s0,0,0,0h-.01s-.02-.02-.02-.02h-.03s-.05-.02-.05-.02h-.03s0-.04,0-.04v-.08s0-.04,0-.04h.04s.61,0,.61,0c.07,0,.14,0,.19.02.06.01.11.04.15.07h0s.07.07.09.12c.02.05.03.1.03.16,0,.05,0,.1-.02.14-.01.04-.03.08-.05.12h0s-.05.06-.09.09c-.02.02-.05.03-.08.05l.1.16.07.11h0s.08.12.08.12h0l.03.04.03.05h0s.02.03.03.04c0,0,.02.01.02.01h.01s.02,0,.02,0h.04s.04.01.04.01v.04s0,.08,0,.08v.04s-.04,0-.04,0h0ZM36.26,70.93s0-.08-.01-.11c0-.03-.02-.05-.04-.07h0s-.04-.03-.06-.04h0s-.05-.01-.09-.01h-.02s0,.5,0,.5h.02s.06,0,.08-.02c.02-.01.04-.03.06-.05.02-.02.03-.05.04-.08,0-.04.01-.08.01-.13h0ZM39.5,71.96h-.59s-.04,0-.04,0v-.04s0-.08,0-.08v-.04s.04,0,.04,0h.04s.05-.02.05-.02c.01,0,.02,0,.02,0h0s0-.02,0-.02h0s0,0,0,0h0s-.09-.26-.09-.26h-.32s-.02.07-.02.07l-.03.09v.05s-.02.03-.02.03v.03s0,0,0,0c0,0,0,0,.02.01,0,0,.02,0,.04.01h0s.04,0,.07.01h.04s0,.04,0,.04v.08s0,.04,0,.04h-.04s-.45,0-.45,0h-.04s0-.04,0-.04v-.08s0-.04,0-.04h.04s.03,0,.03,0h.03s.03-.02.03-.02h0s.02-.01.02-.02c0,0,.01-.02.02-.03h0s.01-.02.02-.03c0-.01.01-.03.01-.04h0s.17-.56.17-.56l.19-.61v-.03s.04,0,.04,0h.15s.03,0,.03,0v.03s.15.42.15.42h0l.11.32.08.25.07.2v.02s.02.02.02.02v.02s.03.02.03.02c0,0,.01,0,.02,0h0s.02,0,.02,0h.03s.02,0,.02,0h.04s0,.04,0,.04v.08s0,.04,0,.04h-.04ZM38.87,71.33l-.11-.33-.1.33h.2ZM42.23,70.61h-.06s-.02.02-.03.02c0,0-.02.01-.02.02h0s0,.01-.01.02h0s0,.03-.01.05c0,.02,0,.05,0,.08,0,.03,0,.06,0,.11v1s.01.04.01.04h-.04s-.14,0-.14,0h-.02s-.01-.02-.01-.02l-.61-.95v.51s0,.08.01.1c0,.03,0,.05,0,.07,0,.02,0,.03.02.05,0,.01.01.02.02.02h0s.01,0,.02.01c0,0,.02.01.03.01h.04s.03.02.03.02h.03s0,.04,0,.04v.08s0,.04,0,.04h-.04s-.47,0-.47,0h-.04s0-.04,0-.04v-.08s0-.04,0-.04h.04s.03-.01.03-.01h.04s0,0,0,0c0,0,.02,0,.03-.01h0,0,0,0s.01,0,.02-.01c0,0,.01-.01.02-.02,0-.01,0-.03.01-.04,0-.02,0-.04,0-.07,0-.03,0-.07,0-.11v-.66s-.01-.03-.01-.04h0s0-.03,0-.04h0s0-.02-.01-.03c0,0-.01-.02-.02-.03,0,0-.02-.02-.02-.02,0,0-.02-.01-.03-.02h0s-.02-.01-.03-.01h0s-.02,0-.04-.01h-.03s0-.04,0-.04v-.08s0-.04,0-.04h.04s.41,0,.41,0h.02s.01.02.01.02l.52.81v-.38s0-.08,0-.11c0-.03,0-.05,0-.07h0s0-.03-.01-.04h0s-.01-.02-.02-.03c0,0-.01,0-.02-.01,0,0-.02,0-.03-.01h-.04s-.03-.02-.03-.02h-.03s0-.04,0-.04v-.07s0-.04,0-.04h.04s.47,0,.47,0h.04s0,.04,0,.04v.07s0,.03,0,.03h-.03ZM44.39,71.9h-.6s-.04,0-.04,0v-.04s0-.08,0-.08v-.04s.04,0,.04,0h.06s.03-.01.03-.01h0s0,0,0,0c0,0,0,0,.01,0h0s0,0,0-.01h0s0-.01,0-.02c0,0,0-.02,0-.03v-.99s-.01-.02-.01-.02h0s0-.01,0-.02c0,0,0-.01-.02-.02h0s-.03-.01-.05-.02h-.03s-.03-.01-.03-.01h-.03s0-.04,0-.04v-.08s0-.04,0-.04h.04s.6,0,.6,0h.04s0,.04,0,.04v.08s0,.04,0,.04h-.04s-.06.01-.06.01h-.03s-.01.01-.02.01c0,0,0,0-.01,0,0,0,0,0,0,0,0,0,0,.01,0,.02v.03s.01.99.01.99v.02s0,0,0,0c0,0,0,.01,0,.02,0,0,0,0,0,0h0s0,0,.01,0h0s.01,0,.01,0h.03s.03.01.03.01h.03s.04,0,.04,0v.04s0,.08,0,.08v.04s-.04,0-.04,0h0ZM47.22,71.86h-.42s-.02,0-.02,0v-.02s-.11-.19-.11-.19h0c-.03-.05-.06-.1-.08-.14-.03-.04-.05-.09-.08-.13l-.07-.1v.35s0,.02,0,.02h0s0,.01,0,.02h0s0,0,0,.01h.01s.02.02.02.02h.02s0,0,0,0h.03s.02.01.02.01h.03s0,.04,0,.04v.08s0,.04,0,.04h-.04s-.58,0-.58,0h-.04s0-.04,0-.04v-.08s0-.04,0-.04h.04s.06-.01.06-.01h.03s.01-.01.01-.01c0,0,.01,0,.01,0,0,0,0,0,0,0v-.02s0-.02,0-.03v-.98s-.01-.03-.01-.03v-.02s0,0,0,0c0,0,0,0-.01-.01h-.03s-.02-.02-.02-.02h-.05s-.03-.02-.03-.02v-.03s0-.08,0-.08v-.04s.04,0,.04,0h.61c.07,0,.14,0,.19.01.06.01.11.04.15.07h0s.07.07.09.12c.02.05.03.1.03.16,0,.05,0,.1-.02.14-.01.04-.03.08-.05.12-.02.03-.05.06-.09.09-.02.02-.05.03-.08.05l.1.16.07.11.07.12.03.04h0s.04.05.04.05h0s.02.03.03.04c0,0,.02.01.02.01h.02s.02,0,.02,0h.04s.04.01.04.01v.04s0,.08,0,.08v.04s-.04,0-.04,0h0ZM46.64,70.8c0-.08-.02-.14-.05-.17h0s-.04-.03-.06-.04h0s-.05-.01-.09-.01h-.02s0,.5,0,.5h.02s.06,0,.08-.02c.02-.01.04-.03.06-.05h0s.03-.05.04-.08c0-.04.01-.08.01-.13h0ZM49.85,70.51h-.02s-.02.01-.02.01h-.02s-.02.02-.02.02c0,0-.02.01-.02.02,0,0-.02.02-.02.03l-.02.04h0l-.02.04h0l-.05.1h0s-.05.11-.05.11h0l-.12.24h0s-.02.05-.03.07h0s-.01.04-.01.05h0s0,.03,0,.05h0s0,.05,0,.09v.2s0,.03,0,.03h0s0,.01,0,.02h0s0,0,0,.01h0s0,0,.01,0h.02s.03.01.03.01h0s.04,0,.04,0h.02s.03,0,.03,0v.03s0,.08,0,.08v.04s-.04,0-.04,0h-.6s-.04,0-.04,0v-.04s0-.08,0-.08v-.04s.04,0,.04,0h.06s.03-.01.04-.02c0,0,.01,0,.01-.01,0,0,0,0,0-.01v-.02s0-.02,0-.03v-.24s0,0,0,0v-.05s0-.02,0-.02h0s0-.03,0-.03v-.02h-.01l-.03-.07-.06-.13-.06-.12-.11-.22s-.02-.03-.03-.05c0-.01-.02-.02-.02-.03,0,0-.02-.02-.02-.03h0s-.02-.01-.02-.02h-.02s0,0,0,0h-.02s-.02-.01-.02-.01h-.02s-.04,0-.04,0v-.04s0-.08,0-.08v-.04s.04,0,.04,0h.62s.04,0,.04,0v.04s0,.08,0,.08v.04s-.04,0-.04,0c-.05,0-.09,0-.1.01h0s0,.03,0,.03v.04s.04.06.04.06h0l.03.08.04.1.06.12.03.06.08-.17.07-.16s.03-.07.04-.09h0s.01-.03.01-.04c0,0,0-.01-.01-.01,0,0-.02,0-.03,0h0s-.03,0-.06,0h-.04s0-.04,0-.04v-.08s0-.04,0-.04h.04s.4,0,.4,0h.04s0,.04,0,.04v.08s0,.03,0,.03h-.03ZM35.2,65.42c.03.1.12.2.17.27.14-.01.1,0,.22-.07l.17-.13-.22-.31c-.14.05-.25.16-.34.24h0ZM34.2,65.98l-.03,1.02h-1.37s-.15-.11-.15-.11l-.45.25c-.15.09-.09.03-.14.15l2.49.03v-.54s1.22-.07,1.22-.07c.08-.17.05-.62.03-.83h-.41s0,.41,0,.41c-.18.02-.79.1-.83-.1,0-.03,0-.08,0-.11,0-.11,0-.11-.03-.19-.11-.05-.22.02-.33.1h0ZM36.19,65.3v1.43c.18,0,.24-.05.37-.13v-1.39s-.37.09-.37.09h0ZM43.22,65.72c-.39.36-.34.63-.98.61.05-.22.25-.34.26-.61-.26-.1-.6-.18-.96-.11-.51.1-.62.16-.64.52.09.06.16.1.21.21h-.71s0-.86,0-.86c-.2.06-.2.2-.39.23-.18.03-.67-.01-.86.36-.1.2.03.37.16.41.13.05.38.05.53.06.31.03.21.06.42.18.25.14.77.15,1.07.04.45-.16.15.09,1.01.08.19,0,.36-.05.5-.1.32-.13.15-.11.47-.02,1.02.31.83-1.09-.08-1h0ZM37.87,65.3v.98s-.54.02-.54.02l-.03-.43c-.17-.03-.25.02-.38.07l-.03,1.09h-.99c-.16-.03-.06-.02-.19-.11-.15.06-.08.05-.26.21-.07.07-.17.12-.18.24l1.8.03s.11,0,.11,0c.2-.03.12-.16.14-.6h.9c.06-.22.04-1.3.04-1.61-.15.01-.29.07-.41.12h0ZM38.55,65.36c0,.27-.04,1.24.01,1.43.11-.04.25-.14.34-.21v-1.37c-.16.02-.24.06-.36.16h0ZM45.79,67.18c.05.11.19.18.3.23.13-.05.18-.11.27-.2-.05-.12-.15-.18-.28-.29-.12.06-.18.15-.29.26h0ZM44.53,65.25c-.05.14-.06,1.33-.04,1.57l2.41.04.02-.41-1.01-.7-.37-.03c-.18.02-.13.14-.14.67-.15.02-.35.02-.47-.02l-.05-1.18c-.17-.03-.22-.01-.34.06h0ZM45.8,66.45h.41c-.04-.11-.29-.24-.42-.26l.02.26h0ZM39.4,65.33l.22.19.23-.14c.1.06.11.09.19.15l.25-.21-.18-.23c-.14.07-.12.11-.26.18l-.27-.19-.18.26h0ZM43.35,66.23c.04.15.15.16.19,0-.11-.06-.08-.06-.19,0h0ZM41.51,66.14c.03.05-.05.1.12.09.17-.01.12-.1.14-.15-.23.02-.15-.01-.26.06h0ZM39.74,66.1c.05.08.12.1.23.06.09-.04.09-.09.08-.19-.07-.04,0-.04-.13-.03-.12.01-.14.05-.18.09v.08h0ZM20.33,73.66l7.52-.04c4.1,0,8.17-.05,12.26-.06l11.88-.08c1.86-.02,3.72.01,5.59-.03l-2.04-2.14c-.18-.17-.37-.38-.52-.54l-1.3-1.34c-.16-.16-.35-.36-.5-.51l-28.61.04c-.75.79-1.41,1.5-2.15,2.33l-1.63,1.77c-.11.12-.49.48-.5.61h0Z"></path><path class="uuid-71767cf0-5296-4581-a6c7-b85b22a0d7af" d="M31.53,56.48l-.65-1.16c-.37-.75-.21-.76-.69-1.14-2.63-2.05-4.75-5.38-5.78-8.64-.11-.35-.12-.3-.37-.5-1.54-1.24-2.87-2.47-4.17-3.97-.11-.13-.71-.93-.84-.98.03.44.2,1.08.28,1.51.09.51.24.97.35,1.47.71,3.23,2.74,7.12,5.16,9.28,1.59,1.41,3.44,2.71,5.41,3.57.33.14.97.49,1.28.56h0Z"></path><path class="uuid-71767cf0-5296-4581-a6c7-b85b22a0d7af" d="M45.91,57.23c.36-.07,2.12-.95,2.5-1.16,5.88-3.21,8.42-7.37,9.79-13.77l.28-1.41c0-.13,0-.06-.02-.1-.07.04-.72.86-.81.97-1.14,1.37-2.31,2.42-3.68,3.58-.17.15-.42.92-.56,1.25-2.36,5.62-5.75,7.26-5.91,7.69-.36.93-.66,1.58-1.22,2.4-.09.13-.33.42-.36.55h0Z"></path><path class="uuid-71767cf0-5296-4581-a6c7-b85b22a0d7af" d="M42.51,40.8h1.33s-.1-8.93-.1-8.93c.12.05.15.26.26.52.24.56.46,1.16.72,1.71.37.77.69,1.48,1.04,2.23.34.73.68,1.51,1.03,2.23.2.39.89,2.03,1.06,2.19l1.82-.02-.12-10.97c-.19-.04-1.14-.02-1.35,0l.11,8.89c-.12-.09-.89-1.94-1.01-2.21-.34-.77-.68-1.43-1.02-2.21l-1.55-3.31c-.18-.37-.34-.77-.52-1.11l-1.84.02.14,10.98h0ZM39.59,21.68c.42-.4,1.22-1.04.63-1.82-.28-.37-.7-.77-1.01-1.15-.06-.07-.1-.13-.16-.21-.1-.13-.08-.13-.18-.2l-.8.99c-.57.66-.99.93-.52,1.75.07.13.27.46.38.53.1.07,1.45.14,1.66.11h0ZM37.73,42.57c.13-.05.22-.19.31-.3l.68-.87c.12-.16.06-.12.18-.18.09.05.02,0,.08.05.2.18.85,1.01,1.03,1.05.04-1.25-.09-3.5-.11-4.88-.06-4.1-.19-8.2-.26-12.29,0-.11,0-2.35-.09-2.44-.12-.1-.57-.05-.74-.07-.19-.02-.57-.06-.76-.02l-.31,19.95h0ZM35.09,30c-.2-.03-1.14-.03-1.25.03-.04.05-.03-.04-.04.11,0,.03,0,.15,0,.19l.08,5.52c.01.9.11,1.93-.19,2.71-.28.73-.81,1.17-1.78,1.18-2.18.02-2.03-1.88-2.06-3.83l-.12-5.82c-.15-.09-1.02-.03-1.26,0-.05.24.03,3.04.03,3.53.01,1.19.04,2.37.06,3.56.03,2.37.93,3.85,3.36,3.8,2.2-.05,3.29-1.64,3.28-3.84,0-.45-.06-6.8-.12-7.12h0Z"></path><path class="uuid-71767cf0-5296-4581-a6c7-b85b22a0d7af" d="M45.94,58.37v.74s-1.87.02-1.87.02c-.13.17-.59.54-.78.7-.12.09-.29.23-.42.34-.11.09-.36.25-.38.35h3.85c.05.39.02,1,.02,1.4l-.02,1.18c0,.17.01.1.05.14.14.08,1.01.06,1.22.01l.02-2,1.49-.02v-2.1s-1.22,0-1.22,0l-.02-1.5c-.33-.01-.72.24-.98.35-.3.13-.67.26-.94.4h0ZM30.31,58.95c-.23.13-1.41-.05-1.72.08,0,.08-.04,2.05.05,2.12.1.08,1.29.03,1.62.03.02.5,0,1.86.05,2.02l1.16-.02v-2.63c.33-.08,3.38-.03,4.1-.02-.02-.12-.68-.62-.83-.73-.15-.12-.27-.23-.43-.36-.16-.13-.24-.3-.48-.3-.53,0-1.07,0-1.59,0-.34,0-.28.06-.28-.52,0-.26.01-.57-.01-.82-.87-.34-.71-.39-1.6-.37-.07.39.08,1.21-.04,1.53h0ZM33.07,63.02h.18s-.18-.12-.18-.12v.12h0ZM45.38,62.31v-.81s-.68,0-.68,0c.05.3.4.75.68.81h0ZM44.9,62.86h-.18s.18-.12.18-.12v.12h0ZM40.43,61.93v.3s.33,0,.33,0v-.42s-.18,0-.18,0l-.16.12h0ZM39.16,62.91h.42s0-.39,0-.39l-.42.28v.11h0ZM41.63,61.79h.33s0,.41,0,.41h-.33s0-.41,0-.41h0ZM42.2,61.8h.33s0,.41,0,.41h-.33s0-.41,0-.41h0ZM42.82,61.8h.33s0,.41,0,.41h-.33s0-.41,0-.41h0ZM41.03,61.8h.33s0,.41,0,.41h-.33s0-.41,0-.41h0ZM41.63,62.47h.33s0,.41,0,.41h-.33s0-.41,0-.41h0ZM42.21,62.47h.33s0,.41,0,.41h-.33s0-.41,0-.41h0ZM42.82,62.47h.33s0,.41,0,.41h-.33s0-.41,0-.41h0ZM41.03,62.47h.33s0,.41,0,.41h-.33s0-.41,0-.41h0ZM40.44,62.5h.33s0,.41,0,.41h-.33s0-.41,0-.41h0ZM39.86,62.49h.33s0,.41,0,.41h-.33s0-.41,0-.41h0ZM40.17,62.23h-.18s.18-.12.18-.12v.12h0ZM37.39,61.97v.3s-.33,0-.33,0v-.42s.16,0,.16,0l.16.12h0ZM38.69,62.92h-.42s0-.38,0-.38l.42.27v.11h0ZM36.19,61.87h-.33s0,.42,0,.42h.33s0-.42,0-.42h0ZM35.62,61.89h-.33s0,.42,0,.42h.33s0-.42,0-.42h0ZM35,61.9h-.33s0,.42,0,.42h.33s0-.42,0-.42h0ZM36.79,61.86h-.33s0,.42,0,.42h.33s0-.42,0-.42h0ZM36.21,62.54h-.33s0,.42,0,.42h.33s0-.42,0-.42h0ZM35.63,62.56h-.33s0,.42,0,.42h.33s0-.42,0-.42h0ZM35.02,62.57h-.33s0,.42,0,.42h.33s0-.42,0-.42h0ZM36.8,62.53h-.33s0,.42,0,.42h.33s0-.42,0-.42h0ZM37.4,62.54h-.33s0,.42,0,.42h.33s0-.42,0-.42h0ZM37.98,62.51h-.33s0,.42,0,.42h.33s0-.42,0-.42h0ZM37.66,62.27h.18s-.18-.12-.18-.12v.12h0ZM32.45,62.37c.33-.05.74-.54.77-.87h-.78s0,.87,0,.87h0Z"></path><path class="uuid-71767cf0-5296-4581-a6c7-b85b22a0d7af" d="M48.46,48.11c-.07,1.02-.08,2.23-.26,3.25-.05.3-.15.72-.17,1.04.12-.05.19-.12.28-.2.94-.9,1.57-1.58,2.33-2.66.79-1.13,1.33-2.21,1.9-3.53.24-.56.83-2.13.86-2.81-.16.09-.11.11-.29.34-1.14,1.43-1.76,2.27-3.26,3.51-.22.18-.45.36-.67.54l-.7.53h0Z"></path><path class="uuid-71767cf0-5296-4581-a6c7-b85b22a0d7af" d="M29.96,52.55c0-.22-.09-.51-.13-.75-.15-1.07-.24-2.17-.28-3.26,0-.18,0-.17-.13-.28-1.56-1.23-2.93-2.52-4.11-4.18-.08-.11-.26-.42-.38-.47.07.5.67,2.18.84,2.64.82,2.16,2.1,4.22,3.73,5.88.11.11.32.36.46.41h0Z"></path><path class="uuid-3a5ac790-9986-4398-8c02-a82b25ade7ce" d="M35.36,51.22s-.02.03-.08.06c-.02.01-.08.02-.1.03v.16s.21-.01.21-.01c.69-.02,3.37-.71,3.79-.58l3.54.9.05-.22-3.53-.91c-.46-.11-1.43.14-1.96.23-.39.06-1.65.33-1.92.33h0Z"></path><path class="uuid-42bd3906-81e3-4496-8e11-f86842d02c13" d="M35.39,51.46h-.2s-.01-.15-.01-.15c.03,0,.08-.02.1-.03.06-.03.05-.03.08-.06l-.24.04c-.02.16-.03.12.04.25.23.03.18-.02.22-.05h0Z"></path><circle class="uuid-5427850b-5bcc-4b76-8217-bff77b33054f" cx="115.95" cy="46.41" r="36.67" transform="translate(41.93 147.01) rotate(-75.47)"></circle><path class="uuid-dfcb52c2-292c-48d5-9be7-8379997a08e4" d="M108.65,32.64v10.86s.36,3.09,3.67,3.25v-11.13s-.5-3.18-3.67-2.98h0ZM94.52,48.2l.03-3.67c.04-.52.47-.86.95-.82h5.33c2.27.54,2.57,3.85,0,4.43l-6.31.05h0ZM125.53,32.66v12.28s.3,6.13,7,7.09h8.57v-14.2s-3.25-.09-3.72,3.46v6.93h-4.6s-3.13-.2-3.54-3.81v-8.42s-.26-3.54-3.71-3.33h0ZM108.65,52h15.53s.14-3.18-3.13-3.7h-9.06s-3.07.11-3.35,3.7h0ZM94.51,37.86c-3.41-.1-3.7,3.44-3.7,3.44v10.68s9.42.17,10.35,0c.94-.17,3.71-.76,4.9-4.2s-1.22-5.81-1.22-5.81c2.04-2.52,1.43-4.56,1.43-4.56-.37-3.98-4.52-4.78-4.52-4.78h-10.92c.12,3.33,3.38,3.66,3.38,3.66h6.81c1.38.2,1.62,1.45,1.62,1.45.09,1.96-1.48,2.19-1.48,2.19h-6.65v-2.07Z"></path><path class="uuid-115cd9bc-7f46-4501-810a-a5a06e896d2a" d="M137.36,32.59h3.69v3.63s-3.35.25-3.69-3.63h0ZM136.08,55.93h2.8s1.07.03.82,1.36c-.14.77-.29,1.75-1.25,1.9l-3.01.05.64-3.31h0ZM135.1,54.83l-1.01,5.41,4.79-.07c1.54-.24,1.77-1.84,2-3.1.39-2.18-1.31-2.23-1.31-2.23h-4.47ZM127.98,57.01h5.7l-.15.93h-4.55s-.37,1.16.45,1.16h3.89l-.11,1.07h-4.41s-1.33-.02-1.1-1.71l.29-1.46h0ZM121.32,56.98h5.7l-.15.93h-4.55s-.37,1.16.45,1.16h3.89l-.11,1.07h-4.41s-1.33-.02-1.1-1.71l.29-1.46h0ZM134.13,54.77l-.2,1.05h-5.63s.58-1.1,1.73-1.09c1.14.01,4.11.04,4.11.04h0ZM127.49,54.81l-.2,1.05h-5.63s.58-1.1,1.73-1.09c1.14.01,4.11.04,4.11.04h0ZM115.05,54.76c-.19.05-.18.29-.18.29l-.93,5.16h1.18s.34-1.72.34-1.72c0,0,3.2.05,3.77,0,.57-.05,1.03-.63,1.03-.63,0,0,.36-.41.48-1.72.11-1.31-.91-1.39-.91-1.39h-4.78ZM115.94,55.87h3.07c.89-.01.44,1.78-.28,1.71h-3.1l.31-1.71h0ZM108.02,55.65h-2.67s-.62-.35,0-.9h8.48l-.2,1.12h-4.31s-.62,1.01,0,1.06c.62.05,3.38,0,3.38,0,1.25.1.76,3.03-.54,3.25h-5.01l.21-1.06,4.59-.02c.34-.51.44-1.17-.09-1.16-.8,0-3.39.25-3.89-.31-.36-.4-.08-1.5.05-1.97h0ZM104.15,59.26c-.46.17-.46.75.01.85h1.88c.42-.15.41-.69,0-.85h-1.89ZM101.66,59.25h1.11c.39.12.44.71,0,.84h-1.08c-.39-.1-.42-.67-.03-.84h0ZM100.22,57.94h1.1c.38.2.37.62,0,.84h-1.08c-.41-.15-.44-.65-.03-.84h0ZM102.65,57.94c-.36.14-.36.69.01.82h3.98c.44-.12.33-.81,0-.81-1.33,0-2.66,0-3.99,0h0ZM101.48,56.33c-.45.12-.49.72-.01.87h5.28c.52-.12.5-.78,0-.87h-5.27Z"></path></svg>